{
  "accessors": [
    {
      "bufferView": 2,
      "componentType": 5126,
      "count": 12927,
      "max": [
        123.6525650024414,
        318.21881103515625,
        171.39797973632813
      ],
      "min": [
        -48.46387481689453,
        -0.6926506161689758,
        -168.2063446044922
      ],
      "type": "VEC3"
    },
    {
      "bufferView": 2,
      "byteOffset": 155124,
      "componentType": 5126,
      "count": 12927,
      "max": [
        0.9998906254768372,
        0.9998540878295898,
        0.9999874830245972
      ],
      "min": [
        -0.9998937249183655,
        -0.9999552965164185,
        -0.9999548196792603
      ],
      "type": "VEC3"
    },
    {
      "bufferView": 3,
      "componentType": 5126,
      "count": 12927,
      "max": [
        0.9998815059661865,
        0.9999633431434631,
        0.9999575614929199,
        1.0
      ],
      "min": [
        -0.9999997615814209,
        -0.9998320937156677,
        -0.9999532699584961,
        -1.0
      ],
      "type": "VEC4"
    },
    {
      "bufferView": 1,
      "componentType": 5126,
      "count": 12927,
      "max": [
        0.9857400059700012,
        0.9840800166130066
      ],
      "min": [
        0.01281999982893467,
        0.008539974689483643
      ],
      "type": "VEC2"
    },
    {
      "bufferView": 1,
      "byteOffset": 103416,
      "componentType": 5126,
      "count": 12927,
      "max": [
        0.9857400059700012,
        0.9840800166130066
      ],
      "min": [
        0.01281999982893467,
        0.008539974689483643
      ],
      "type": "VEC2"
    },
    {
      "bufferView": 1,
      "byteOffset": 206832,
      "componentType": 5126,
      "count": 12927,
      "max": [
        0.9857400059700012,
        0.9840800166130066
      ],
      "min": [
        0.01281999982893467,
        0.008539974689483643
      ],
      "type": "VEC2"
    },
    {
      "bufferView": 1,
      "byteOffset": 310248,
      "componentType": 5126,
      "count": 12927,
      "max": [
        0.9857400059700012,
        0.9840800166130066
      ],
      "min": [
        0.01281999982893467,
        0.008539974689483643
      ],
      "type": "VEC2"
    },
    {
      "bufferView": 0,
      "componentType": 5125,
      "count": 66900,
      "type": "SCALAR"
    },
    {
      "bufferView": 2,
      "byteOffset": 310248,
      "componentType": 5126,
      "count": 18289,
      "max": [
        89.0943832397461,
        314.12139892578125,
        166.09739685058594
      ],
      "min": [
        -30.73999786376953,
        3.1215267181396484,
        -205.94000244140625
      ],
      "type": "VEC3"
    },
    {
      "bufferView": 2,
      "byteOffset": 529716,
      "componentType": 5126,
      "count": 18289,
      "max": [
        0.9999650716781616,
        0.9998881220817566,
        0.9999940395355225
      ],
      "min": [
        -0.9999926686286926,
        -0.9976534843444824,
        -0.9997984170913696
      ],
      "type": "VEC3"
    },
    {
      "bufferView": 1,
      "byteOffset": 413664,
      "componentType": 5126,
      "count": 18289,
      "max": [
        0.988860011100769,
        0.9990599751472473
      ],
      "min": [
        0.00013000000035390258,
        0.0015199780464172363
      ],
      "type": "VEC2"
    },
    {
      "bufferView": 1,
      "byteOffset": 559976,
      "componentType": 5126,
      "count": 18289,
      "max": [
        0.988860011100769,
        0.9990599751472473
      ],
      "min": [
        0.00013000000035390258,
        0.0015199780464172363
      ],
      "type": "VEC2"
    },
    {
      "bufferView": 1,
      "byteOffset": 706288,
      "componentType": 5126,
      "count": 18289,
      "max": [
        0.988860011100769,
        0.9990599751472473
      ],
      "min": [
        0.00013000000035390258,
        0.0015199780464172363
      ],
      "type": "VEC2"
    },
    {
      "bufferView": 0,
      "byteOffset": 267600,
      "componentType": 5125,
      "count": 39177,
      "type": "SCALAR"
    }
  ],
  "asset": {
    "extras": {
      "author": "Al-Deezel (https://sketchfab.com/moroahmedadel)",
      "license": "CC-BY-4.0 (http://creativecommons.org/licenses/by/4.0/)",
      "source": "https://sketchfab.com/3d-models/high-detailed-brown-horse-6e2fceac33b74cd28e8ca9119eb88233",
      "title": "High detailed brown horse"
    },
    "generator": "Sketchfab-15.18.0",
    "version": "2.0"
  },
  "bufferViews": [
    {
      "buffer": 0,
      "byteLength": 424308,
      "name": "floatBufferViews",
      "target": 34963
    },
    {
      "buffer": 0,
      "byteLength": 852600,
      "byteOffset": 424308,
      "byteStride": 8,
      "name": "floatBufferViews",
      "target": 34962
    },
    {
      "buffer": 0,
      "byteLength": 749184,
      "byteOffset": 1276908,
      "byteStride": 12,
      "name": "floatBufferViews",
      "target": 34962
    },
    {
      "buffer": 0,
      "byteLength": 206832,
      "byteOffset": 2026092,
      "byteStride": 16,
      "name": "floatBufferViews",
      "target": 34962
    }
  ],
  "buffers": [
    {
      "byteLength": 2232924,
      "uri": "scene.bin"
    }
  ],
  "extensionsRequired": [
    "KHR_materials_pbrSpecularGlossiness"
  ],
  "extensionsUsed": [
    "KHR_materials_pbrSpecularGlossiness"
  ],
  "images": [
    {
      "uri": "textures/material_0_diffuse.png"
    },
    {
      "uri": "textures/material_0_specularGlossiness.png"
    },
    {
      "uri": "textures/material_0_normal.png"
    },
    {
      "uri": "textures/material_1_diffuse.png"
    },
    {
      "uri": "textures/material_1_specularGlossiness.png"
    }
  ],
  "materials": [
    {
      "doubleSided": true,
      "extensions": {
        "KHR_materials_pbrSpecularGlossiness": {
          "diffuseFactor": [
            1.0,
            1.0,
            1.0,
            1.0
          ],
          "diffuseTexture": {
            "index": 0
          },
          "glossinessFactor": 1.0,
          "specularFactor": [
            1.0,
            1.0,
            1.0
          ],
          "specularGlossinessTexture": {
            "index": 1
          }
        }
      },
      "name": "material_0",
      "normalTexture": {
        "index": 2
      }
    },
    {
      "alphaMode": "BLEND",
      "doubleSided": true,
      "extensions": {
        "KHR_materials_pbrSpecularGlossiness": {
          "diffuseFactor": [
            1.0,
            1.0,
            1.0,
            1.0
          ],
          "diffuseTexture": {
            "index": 3
          },
          "glossinessFactor": 1.0,
          "specularFactor": [
            1.0,
            1.0,
            1.0
          ],
          "specularGlossinessTexture": {
            "index": 4
          }
        }
      },
      "name": "material_1"
    }
  ],
  "meshes": [
    {
      "name": "Object_0",
      "primitives": [
        {
          "attributes": {
            "NORMAL": 1,
            "POSITION": 0,
            "TANGENT": 2,
            "TEXCOORD_0": 3,
            "TEXCOORD_1": 4,
            "TEXCOORD_2": 5,
            "TEXCOORD_3": 6
          },
          "indices": 7,
          "material": 0,
          "mode": 4
        }
      ]
    },
    {
      "name": "Object_1",
      "primitives": [
        {
          "attributes": {
            "NORMAL": 9,
            "POSITION": 8,
            "TEXCOORD_0": 10,
            "TEXCOORD_1": 11,
            "TEXCOORD_2": 12
          },
          "indices": 13,
          "material": 1,
          "mode": 4
        }
      ]
    }
  ],
  "nodes": [
    {
      "children": [
        1
      ],
      "matrix": [
        1.0,
        0.0,
        0.0,
        0.0,
        0.0,
        2.220446049250313e-16,
        -1.0,
        0.0,
        0.0,
        1.0,
        2.220446049250313e-16,
        0.0,
        0.0,
        0.0,
        0.0,
        1.0
      ],
      "name": "Sketchfab_model"
    },
    {
      "children": [
        2
      ],
      "name": "root"
    },
    {
      "children": [
        3
      ],
      "matrix": [
        1.0,
        0.0,
        0.0,
        0.0,
        0.0,
        2.220446049250313e-16,
        1.0,
        0.0,
        0.0,
        -1.0,
        2.220446049250313e-16,
        0.0,
        0.0,
        0.0,
        0.0,
        1.0
      ],
      "name": "GLTF_SceneRootNode"
    },
    {
      "children": [
        4
      ],
      "matrix": [
        0.009999999776482582,
        0.0,
        0.0,
        0.0,
        0.0,
        0.009999999776482582,
        0.0,
        0.0,
        0.0,
        0.0,
        0.009999999776482582,
        0.0,
        0.0,
        0.0,
        0.0,
        1.0
      ],
      "name": "RootNode.0_0"
    },
    {
      "children": [
        5,
        7
      ],
      "matrix": [
        1.685873868828936e-07,
        0.0,
        0.9999999403953409,
        0.0,
        0.0,
        1.0,
        0.0,
        0.0,
        -0.9999999403953409,
        0.0,
        1.685873868828936e-07,
        0.0,
        0.0,
        0.0,
        0.0,
        1.0
      ],
      "name": "horse.1_1"
    },
    {
      "children": [
        6
      ],
      "matrix": [
        1.0,
        0.0,
        2.6718908186452923e-24,
        0.0,
        0.0,
        1.0,
        0.0,
        0.0,
        -2.6718908186452923e-24,
        0.0,
        1.0,
        0.0,
        0.0,
        0.0,
        0.0,
        1.0
      ],
      "name": "horse.2_2"
    },
    {
      "mesh": 0,
      "name": "Object_6"
    },
    {
      "children": [
        8
      ],
      "matrix": [
        1.0,
        0.0,
        2.6718908186452923e-24,
        0.0,
        0.0,
        1.0,
        0.0,
        0.0,
        -2.6718908186452923e-24,
        0.0,
        1.0,
        0.0,
        0.0,
        0.0,
        0.0,
        1.0
      ],
      "name": "horse_hair.3_3"
    },
    {
      "mesh": 1,
      "name": "Object_8"
    }
  ],
  "samplers": [
    {
      "magFilter": 9729,
      "minFilter": 9987,
      "wrapS": 10497,
      "wrapT": 10497
    }
  ],
  "scene": 0,
  "scenes": [
    {
      "name": "Sketchfab_Scene",
      "nodes": [
        0
      ]
    }
  ],
  "textures": [
    {
      "sampler": 0,
      "source": 0
    },
    {
      "sampler": 0,
      "source": 1
    },
    {
      "sampler": 0,
      "source": 2
    },
    {
      "sampler": 0,
      "source": 3
    },
    {
      "sampler": 0,
      "source": 4
    }
  ]
}
